<svg width="27" height="27" viewBox="0 0 27 27" fill="none" xmlns="http://www.w3.org/2000/svg">
<path d="M9.33798 13.5939C9.49054 13.5371 9.6546 13.5075 9.82047 13.507C9.98634 13.5065 10.1506 13.535 10.3037 13.5909C10.4567 13.6467 10.5954 13.7288 10.7114 13.8322C10.8275 13.9357 10.9186 14.0584 10.9794 14.1931C11.0403 14.3279 11.0695 14.4719 11.0655 14.6166C11.0615 14.7614 11.0242 14.904 10.956 15.036C10.8878 15.168 10.7899 15.2867 10.6682 15.3851C10.5466 15.4835 10.4035 15.5596 10.2476 15.6089C9.41807 15.8942 8.70614 16.3909 8.20442 17.0343C7.7027 17.6777 7.4344 18.4381 7.43444 19.2164V21.1014C7.43444 21.3887 7.56517 21.6643 7.79789 21.8674C8.0306 22.0706 8.34623 22.1847 8.67534 22.1847H18.6025C18.9316 22.1847 19.2473 22.0706 19.48 21.8674C19.7127 21.6643 19.8434 21.3887 19.8434 21.1014V19.3172C19.8436 18.5138 19.5641 17.7294 19.0419 17.068C18.5198 16.4065 17.7798 15.8992 16.9199 15.6132C16.7629 15.5657 16.6186 15.4911 16.4952 15.394C16.3719 15.2968 16.2722 15.179 16.202 15.0476C16.1318 14.9162 16.0926 14.7738 16.0866 14.6288C16.0806 14.4839 16.108 14.3394 16.1672 14.2039C16.2263 14.0684 16.316 13.9447 16.431 13.84C16.546 13.7353 16.6838 13.6519 16.8364 13.5946C16.989 13.5373 17.1532 13.5073 17.3193 13.5065C17.4854 13.5056 17.65 13.5339 17.8034 13.5896C19.1331 14.0318 20.2776 14.8163 21.0851 15.8391C21.8927 16.862 22.3251 18.0749 22.3252 19.3172V21.1014C22.3252 21.9634 21.933 22.79 21.2349 23.3995C20.5367 24.009 19.5899 24.3514 18.6025 24.3514H8.67534C7.68801 24.3514 6.74113 24.009 6.04299 23.3995C5.34485 22.79 4.95264 21.9634 4.95264 21.1014V19.2164C4.95281 18.0032 5.37116 16.8182 6.15328 15.8154C6.9354 14.8127 8.04508 14.0386 9.33798 13.5939ZM13.6389 2.68473C14.9554 2.68473 16.2179 3.14128 17.1487 3.95394C18.0796 4.76659 18.6025 5.8688 18.6025 7.01807V9.18473C18.6025 10.334 18.0796 11.4362 17.1487 12.2489C16.2179 13.0615 14.9554 13.5181 13.6389 13.5181C12.3225 13.5181 11.06 13.0615 10.1291 12.2489C9.19828 11.4362 8.67534 10.334 8.67534 9.18473V7.01807C8.67534 5.8688 9.19828 4.76659 10.1291 3.95394C11.06 3.14128 12.3225 2.68473 13.6389 2.68473ZM13.6389 4.8514C12.9807 4.8514 12.3495 5.07967 11.884 5.486C11.4186 5.89233 11.1571 6.44343 11.1571 7.01807V9.18473C11.1571 9.75937 11.4186 10.3105 11.884 10.7168C12.3495 11.1231 12.9807 11.3514 13.6389 11.3514C14.2971 11.3514 14.9284 11.1231 15.3938 10.7168C15.8593 10.3105 16.1207 9.75937 16.1207 9.18473V7.01807C16.1207 6.44343 15.8593 5.89233 15.3938 5.486C14.9284 5.07967 14.2971 4.8514 13.6389 4.8514Z" fill="#7C7C7C"/>
</svg>
