<svg width="18" height="18" viewBox="0 0 18 18" fill="none" xmlns="http://www.w3.org/2000/svg">
<path d="M17.9434 8.79602C17.9434 9.17185 17.7992 9.53515 17.5298 9.79823C17.2666 10.0676 16.9032 10.2179 16.5272 10.2179H10.8626V15.8804C10.8626 16.2562 10.7122 16.6195 10.4428 16.8826C10.1796 17.1457 9.82246 17.296 9.44649 17.296C9.07052 17.296 8.70709 17.1457 8.44391 16.8826C8.17447 16.6195 8.02408 16.2562 8.02408 15.8804V10.2179H2.3595C1.98354 10.2179 1.6201 10.0676 1.35692 9.79823C1.09375 9.53515 0.943359 9.17185 0.943359 8.79602C0.943359 8.42019 1.09375 8.06315 1.35692 7.79381C1.6201 7.53073 1.98354 7.3804 2.3595 7.3804H8.02408V1.71791C8.02408 1.34208 8.17447 0.978777 8.44391 0.715696C8.70709 0.446352 9.07052 0.296021 9.44649 0.296021C9.82246 0.296021 10.1796 0.446352 10.4428 0.715696C10.7122 0.978777 10.8626 1.34208 10.8626 1.71791V7.3804H16.5272C16.9032 7.3804 17.2666 7.53073 17.5298 7.79381C17.7992 8.06315 17.9434 8.42019 17.9434 8.79602Z" fill="white"/>
</svg>
