<svg width="27" height="27" viewBox="0 0 27 27" fill="none" xmlns="http://www.w3.org/2000/svg">
<path d="M10.548 26.9551C9.78052 26.9551 9.04443 26.6127 8.50171 26.0032C7.959 25.3937 7.6541 24.5671 7.6541 23.7051C7.6541 22.8432 7.959 22.0165 8.50171 21.407C9.04443 20.7975 9.78052 20.4551 10.548 20.4551C11.3156 20.4551 12.0516 20.7975 12.5944 21.407C13.1371 22.0165 13.442 22.8432 13.442 23.7051C13.442 24.5671 13.1371 25.3937 12.5944 26.0032C12.0516 26.6127 11.3156 26.9551 10.548 26.9551ZM20.6768 26.9551C19.9093 26.9551 19.1732 26.6127 18.6305 26.0032C18.0878 25.3937 17.7829 24.5671 17.7829 23.7051C17.7829 22.8432 18.0878 22.0165 18.6305 21.407C19.1732 20.7975 19.9093 20.4551 20.6768 20.4551C21.4444 20.4551 22.1805 20.7975 22.7232 21.407C23.2659 22.0165 23.5708 22.8432 23.5708 23.7051C23.5708 24.5671 23.2659 25.3937 22.7232 26.0032C22.1805 26.6127 21.4444 26.9551 20.6768 26.9551ZM1.81122 4.08001C1.45 4.06693 1.10748 3.89658 0.856076 3.605C0.604674 3.31341 0.464111 2.92345 0.464111 2.51758C0.464111 2.1117 0.604674 1.72174 0.856076 1.43016C1.10748 1.13857 1.45 0.968223 1.81122 0.955139L3.47669 0.955139C4.78186 0.955139 5.9105 1.97239 6.1941 3.40239L8.00716 12.5706C8.29077 14.0006 9.4194 15.0179 10.7246 15.0179H21.5942L23.6808 5.64164H10.1588C9.80099 5.6233 9.46323 5.45076 9.21579 5.15991C8.96835 4.86906 8.83027 4.48228 8.83027 4.08001C8.83027 3.67775 8.96835 3.29097 9.21579 3.00012C9.46323 2.70926 9.80099 2.53673 10.1588 2.51839H23.6808C24.1038 2.51825 24.5212 2.62642 24.9014 2.83467C25.2816 3.04292 25.6145 3.34578 25.8748 3.72021C26.1351 4.09465 26.316 4.53081 26.4037 4.99553C26.4914 5.46026 26.4835 5.94132 26.3808 6.40214L24.2943 15.7751C24.1439 16.4515 23.7964 17.0519 23.3071 17.4809C22.8179 17.9099 22.215 18.1429 21.5942 18.1428H10.7246C9.45818 18.143 8.22959 17.6581 7.24173 16.7682C6.25387 15.8783 5.56581 14.6366 5.29119 13.2483L3.47669 4.08001H1.81122Z" fill="#7C7C7C"/>
</svg>
