<svg width="27" height="27" viewBox="0 0 27 27" fill="none" xmlns="http://www.w3.org/2000/svg">
<path d="M10.7408 26.7889C9.97327 26.7889 9.23718 26.4465 8.69446 25.837C8.15174 25.2275 7.84685 24.4008 7.84685 23.5389C7.84685 22.6769 8.15174 21.8503 8.69446 21.2408C9.23718 20.6313 9.97327 20.2889 10.7408 20.2889C11.5083 20.2889 12.2444 20.6313 12.7871 21.2408C13.3298 21.8503 13.6347 22.6769 13.6347 23.5389C13.6347 24.4008 13.3298 25.2275 12.7871 25.837C12.2444 26.4465 11.5083 26.7889 10.7408 26.7889ZM20.8696 26.7889C20.1021 26.7889 19.366 26.4465 18.8233 25.837C18.2805 25.2275 17.9757 24.4008 17.9757 23.5389C17.9757 22.6769 18.2805 21.8503 18.8233 21.2408C19.366 20.6313 20.1021 20.2889 20.8696 20.2889C21.6371 20.2889 22.3732 20.6313 22.9159 21.2408C23.4586 21.8503 23.7635 22.6769 23.7635 23.5389C23.7635 24.4008 23.4586 25.2275 22.9159 25.837C22.3732 26.4465 21.6371 26.7889 20.8696 26.7889ZM2.00397 3.91375C1.64275 3.90067 1.30023 3.73032 1.04882 3.43874C0.797423 3.14715 0.65686 2.75719 0.65686 2.35132C0.65686 1.94544 0.797423 1.55548 1.04882 1.2639C1.30023 0.97231 1.64275 0.801964 2.00397 0.788879L3.66944 0.788879C4.97461 0.788879 6.10325 1.80613 6.38685 3.23613L8.19991 12.4044C8.48352 13.8344 9.61215 14.8516 10.9173 14.8516H21.787L23.8735 5.47538H10.3516C9.99374 5.45704 9.65598 5.2845 9.40854 4.99365C9.1611 4.7028 9.02302 4.31602 9.02302 3.91375C9.02302 3.51149 9.1611 3.12471 9.40854 2.83386C9.65598 2.543 9.99374 2.37047 10.3516 2.35213H23.8735C24.2965 2.35199 24.714 2.46016 25.0942 2.66841C25.4743 2.87666 25.8072 3.17952 26.0676 3.55395C26.3279 3.92839 26.5087 4.36455 26.5964 4.82927C26.6841 5.294 26.6763 5.77506 26.5736 6.23588L24.487 15.6089C24.3366 16.2852 23.9891 16.8856 23.4999 17.3146C23.0106 17.7436 22.4077 17.9766 21.787 17.9765H10.9173C9.65092 17.9767 8.42234 17.4918 7.43448 16.6019C6.44662 15.712 5.75856 14.4704 5.48394 13.082L3.66944 3.91375H2.00397Z" fill="#53B175"/>
</svg>
