<svg width="17" height="13" viewBox="0 0 17 13" fill="none" xmlns="http://www.w3.org/2000/svg">
<path fill-rule="evenodd" clip-rule="evenodd" d="M16.9535 2.22929C16.9535 2.65525 16.7921 3.05538 16.5147 3.3337L7.69338 12.203C7.38354 12.497 6.97842 12.6662 6.57147 12.6662C6.16057 12.6662 5.75882 12.4943 5.47305 12.2076L1.05066 7.77064C0.773252 7.49232 0.611816 7.09219 0.611816 6.66622C0.611816 6.26316 0.775902 5.87563 1.06973 5.56199C1.37109 5.27815 1.75589 5.11978 2.17687 5.1032C2.58745 5.10538 2.96885 5.26054 3.27118 5.54748L6.57147 8.85862L14.2941 1.11054C14.5965 0.8236 14.9779 0.668447 15.3885 0.66626C15.8123 0.682954 16.1959 0.843105 16.4957 1.14391C16.7852 1.43434 16.9535 1.82049 16.9535 2.22929Z" fill="#FCFCFC"/>
</svg>
