<svg width="27" height="21" viewBox="0 0 27 21" fill="none" xmlns="http://www.w3.org/2000/svg">
<path d="M17.013 15.4515C17.7357 15.4515 18.4512 15.281 19.1189 14.9497C19.7865 14.6185 20.3931 14.133 20.9041 13.5209C21.4151 12.9088 21.8204 12.1822 22.0969 11.3824C22.3735 10.5827 22.5158 9.72559 22.5158 8.85999C22.5158 7.99438 22.3735 7.13725 22.0969 6.33753C21.8204 5.53782 21.4151 4.81118 20.9041 4.1991C20.3931 3.58702 19.7865 3.1015 19.1189 2.77024C18.4512 2.43899 17.7357 2.2685 17.013 2.2685C15.5536 2.2685 14.154 2.96295 13.122 4.1991C12.09 5.43524 11.5103 7.11182 11.5103 8.85999C11.5103 10.6082 12.09 12.2847 13.122 13.5209C14.154 14.757 15.5536 15.4515 17.013 15.4515ZM22.8093 14.2496L26.0926 18.1826C26.1802 18.284 26.25 18.4053 26.2979 18.5393C26.3459 18.6734 26.3711 18.8176 26.3721 18.9634C26.3731 19.1093 26.3498 19.2539 26.3036 19.3889C26.2574 19.5239 26.1892 19.6465 26.1031 19.7496C26.0169 19.8526 25.9144 19.9341 25.8017 19.9893C25.689 20.0444 25.5682 20.0721 25.4464 20.0707C25.3246 20.0694 25.2043 20.039 25.0924 19.9813C24.9806 19.9236 24.8794 19.8398 24.7949 19.7348L21.5116 15.8019C20.0372 17.1728 18.1822 17.8191 16.324 17.6093C14.4659 17.3995 12.7444 16.3494 11.5098 14.6726C10.2753 12.9959 9.62068 10.8187 9.67914 8.58416C9.7376 6.34962 10.5048 4.22575 11.8245 2.64492C13.1442 1.06409 14.9173 0.145121 16.7828 0.0750961C18.6482 0.00507136 20.4659 0.789252 21.8656 2.268C23.2654 3.74675 24.1421 5.80891 24.3172 8.03468C24.4924 10.2605 23.9528 12.4825 22.8084 14.2485L22.8093 14.2496Z" fill="#53B175"/>
<rect x="0.37207" y="0.0707798" width="8.12118" height="2.63575" rx="1.31787" fill="#53B175"/>
<rect x="0.37207" y="8.24224" width="5.92846" height="2.63575" rx="1.31787" fill="#53B175"/>
<rect x="0.37207" y="16.4141" width="8.12118" height="2.63575" rx="1.31787" fill="#53B175"/>
</svg>
