<svg width="21" height="20" viewBox="0 0 21 20" fill="none" xmlns="http://www.w3.org/2000/svg">
<path d="M15.5203 7.19927L16.9875 5.73208C18.8603 6.81254 20.1073 8.30564 20.1073 9.96022C20.1073 13.2634 15.1655 15.9336 10.1399 15.9406C9.11725 15.9405 8.09738 15.8336 7.09691 15.6217L8.8382 13.8814C9.26281 13.9252 9.69738 13.9481 10.1369 13.9472H10.1389C9.72529 13.9472 9.3266 13.8844 8.95183 13.7677L10.9264 11.7922C11.3948 11.5909 11.7706 11.2151 11.9729 10.7466L13.9465 8.77211C14.1323 9.36728 14.1759 9.99774 14.0739 10.6128C13.9718 11.2279 13.7269 11.8105 13.3589 12.3138C12.9908 12.8171 12.5098 13.227 11.9546 13.5107C11.3994 13.7943 10.7854 13.9438 10.1619 13.9472C14.393 13.9322 18.1138 11.7703 18.1138 9.96022C18.1138 9.0203 17.0951 7.98071 15.5203 7.19927ZM6.24869 10.8324C6.11806 10.2497 6.11999 9.6451 6.25433 9.06326C6.38868 8.48143 6.652 7.9372 7.02486 7.47077C7.39771 7.00434 7.87058 6.62762 8.40854 6.36843C8.9465 6.10924 9.53581 5.9742 10.133 5.97329C5.92874 5.95834 2.16607 8.14417 2.16607 9.96022C2.16607 10.8533 3.06712 11.8311 4.48547 12.5956L3.03223 14.0468C1.3029 12.9783 0.172607 11.54 0.172607 9.96022C0.172607 6.65705 5.14032 3.96288 10.1399 3.97982C11.0509 3.98281 11.961 4.07352 12.8401 4.24097L11.0689 6.01116C10.7798 5.98924 10.4868 5.97628 10.1918 5.97329C10.4728 5.97727 10.7469 6.01017 11.0121 6.06897L6.24769 10.8324H6.24869ZM19.2022 0.697582C19.3891 0.884497 19.4941 1.13797 19.4941 1.40227C19.4941 1.66657 19.3891 1.92005 19.2022 2.10696L2.28767 19.0215C2.1958 19.1168 2.08587 19.1928 1.9643 19.2451C1.84273 19.2974 1.71196 19.325 1.57962 19.3263C1.44727 19.3275 1.31601 19.3024 1.19348 19.2523C1.07095 19.2023 0.95961 19.1284 0.865959 19.0349C0.772308 18.9413 0.698219 18.8301 0.648016 18.7077C0.597812 18.5852 0.5725 18.454 0.573556 18.3216C0.574611 18.1893 0.602013 18.0585 0.654163 17.9368C0.706313 17.8152 0.782167 17.7051 0.877297 17.6131L17.7919 0.698578C17.8844 0.605906 17.9944 0.532388 18.1154 0.482228C18.2364 0.432068 18.3661 0.40625 18.497 0.40625C18.628 0.40625 18.7577 0.432068 18.8787 0.482228C18.9997 0.532388 19.1097 0.605906 19.2022 0.698578V0.697582Z" fill="#7C7C7C"/>
</svg>
