<svg width="27" height="27" viewBox="0 0 27 27" fill="none" xmlns="http://www.w3.org/2000/svg">
<g clip-path="url(#clip0)">
<path d="M5.32215 12.7609L13.7983 21.237L22.2744 12.7609C23.0238 12.0115 23.4448 10.9951 23.4448 9.93533C23.4448 8.87552 23.0238 7.85913 22.2744 7.10974C21.9033 6.73867 21.4628 6.44433 20.978 6.24351C20.4932 6.0427 19.9735 5.93934 19.4488 5.93934C18.389 5.93934 17.3726 6.36034 16.6232 7.10974L13.7983 9.93466L10.9733 7.11107C10.222 6.37173 9.20902 5.95921 8.15495 5.96338C7.10088 5.96755 6.09116 6.38806 5.34573 7.13332C4.60029 7.87857 4.17954 8.8882 4.17513 9.94226C4.17071 10.9963 4.58299 12.0094 5.32215 12.7609ZM12.8566 5.22512L13.7983 6.16676L14.7399 5.22512C15.3573 4.60229 16.0916 4.10754 16.9008 3.76928C17.7099 3.43101 18.5778 3.25589 19.4548 3.25397C20.3318 3.25205 21.2005 3.42337 22.0111 3.75809C22.8217 4.0928 23.5582 4.58433 24.1783 5.20445C24.7984 5.82457 25.29 6.56107 25.6247 7.37166C25.9594 8.18225 26.1307 9.05098 26.1288 9.92795C26.1269 10.8049 25.9518 11.6729 25.6135 12.482C25.2752 13.2911 24.7805 14.0255 24.1576 14.6429L14.7412 24.0606C14.6175 24.1845 14.4706 24.2827 14.309 24.3497C14.1473 24.4167 13.974 24.4512 13.7989 24.4512C13.6239 24.4512 13.4506 24.4167 13.2889 24.3497C13.1272 24.2827 12.9803 24.1845 12.8566 24.0606L3.43887 14.6442C2.80757 14.0288 2.30475 13.2942 1.95958 12.4829C1.61441 11.6716 1.43376 10.7999 1.42812 9.91832C1.42247 9.03671 1.59193 8.16276 1.92667 7.34715C2.26142 6.53154 2.75478 5.79052 3.37814 5.16707C4.00151 4.54362 4.74246 4.05015 5.55802 3.71529C6.37358 3.38043 7.24751 3.21085 8.12912 3.21637C9.01073 3.22189 9.88247 3.40242 10.6938 3.74747C11.5051 4.09253 12.2398 4.59524 12.8553 5.22645L12.8566 5.22512Z" fill="#7C7C7C"/>
</g>
<defs>
<clipPath id="clip0">
<rect width="26" height="26" fill="white" transform="translate(0.236694 0.83374)"/>
</clipPath>
</defs>
</svg>
