<svg width="11" height="19" viewBox="0 0 11 19" fill="none" xmlns="http://www.w3.org/2000/svg">
<g clip-path="url(#clip0)">
<path d="M0.619749 2.67603C0.385069 2.41888 0.254692 2.08054 0.267729 1.72866C0.267729 1.37678 0.398107 1.05197 0.645826 0.794824C0.880506 0.551215 1.20645 0.402343 1.54543 0.402343C1.88442 0.402343 2.21036 0.524148 2.45808 0.767757L9.83748 8.42791C9.95482 8.54971 10.0461 8.69858 10.1113 8.86099C10.1765 9.0234 10.2156 9.19934 10.2156 9.37528C10.2156 9.55122 10.1765 9.72716 10.1113 9.9031C10.0461 10.0655 9.95482 10.2144 9.83748 10.3362L2.45808 17.9963C2.34074 18.1181 2.19732 18.2264 2.04087 18.2941C1.87138 18.3617 1.70189 18.4023 1.5324 18.4023C1.3629 18.4023 1.18037 18.3753 1.02392 18.3076C0.867467 18.2399 0.724051 18.1317 0.593673 18.0099C0.476333 17.8881 0.385068 17.7257 0.319879 17.5632C0.241652 17.4008 0.215576 17.2249 0.215576 17.0354C0.215576 16.8595 0.25469 16.6835 0.319879 16.5211C0.385068 16.3587 0.489371 16.2099 0.619748 16.0745L7.07346 9.37528L5.84791 8.11663L0.619749 2.67603Z" fill="#FFF9FF"/>
</g>
<defs>
<clipPath id="clip0">
<rect width="10" height="18" fill="white" transform="translate(10.2156 18.4023) rotate(-180)"/>
</clipPath>
</defs>
</svg>
