<svg width="10" height="15" viewBox="0 0 10 15" fill="none" xmlns="http://www.w3.org/2000/svg">
<path d="M0.919311 2.19922L0.919288 2.19924L0.921144 2.20103L5.3128 6.43261L5.31328 6.43306L6.26694 7.33993L0.921236 12.478C0.804815 12.5899 0.708207 12.7162 0.646891 12.8577C0.587603 12.9944 0.551027 13.1448 0.551027 13.2974C0.551027 13.4534 0.574011 13.6066 0.648274 13.7509C0.706331 13.884 0.789156 14.0215 0.899331 14.1274L0.899236 14.1275L0.903206 14.131C1.0174 14.2297 1.14739 14.3215 1.29286 14.3797C1.43945 14.4385 1.60623 14.4606 1.75715 14.4606C1.91434 14.4606 2.06866 14.4257 2.21895 14.3702L2.21896 14.3702L2.22145 14.3692C2.36691 14.311 2.49797 14.2188 2.60403 14.1169L8.80272 8.15901C8.91195 8.05402 8.99578 7.92682 9.05516 7.78984L9.0552 7.78986L9.05625 7.78722C9.11432 7.64211 9.15102 7.49244 9.15102 7.33954C9.15102 7.1869 9.11445 7.03653 9.05516 6.89977C8.99578 6.7628 8.91195 6.63559 8.80272 6.5306L2.60403 0.57271L2.60405 0.572683L2.60206 0.570866C2.3735 0.36275 2.07482 0.260595 1.76811 0.260595C1.45675 0.260595 1.15833 0.38693 0.943137 0.593762C0.716865 0.811245 0.595368 1.0888 0.594835 1.39018C0.583301 1.69304 0.704888 1.98167 0.919311 2.19922Z" fill="#181725" stroke="#181725" stroke-width="0.2"/>
</svg>
