<svg width="27" height="27" viewBox="0 0 27 27" fill="none" xmlns="http://www.w3.org/2000/svg">
<path d="M9.66841 4.68514V4.63514H9.61841H6.36841C6.06783 4.63514 5.77956 4.75454 5.56702 4.96709C5.35448 5.17963 5.23508 5.4679 5.23508 5.76847V7.93514C5.23508 8.23572 5.35448 8.52399 5.56702 8.73653C5.77956 8.94907 6.06783 9.06847 6.36841 9.06847H8.53508C8.83566 9.06847 9.12392 8.94907 9.33647 8.73653C9.54901 8.52399 9.66841 8.23572 9.66841 7.93514V4.68514ZM6.37924 11.1351H6.32924V11.1851V21.9806V22.0306H6.37924H8.53508H8.58508V21.9806V16.6018C8.58508 16.0404 8.80808 15.5021 9.20504 15.1051C9.60199 14.7081 10.1404 14.4851 10.7017 14.4851H12.8684C13.4298 14.4851 13.9682 14.7081 14.3651 15.1051C14.7621 15.5021 14.9851 16.0404 14.9851 16.6018V21.9806V22.0306H15.0351H21.5492H21.5992V21.9806V11.1851V11.1351H21.5492H19.3684C18.5492 11.1351 17.8004 10.8269 17.2351 10.3202L17.2017 10.2903L17.1684 10.3203C16.5823 10.846 15.8224 11.1362 15.0351 11.1351H15.0351H12.8684C12.0492 11.1351 11.3004 10.8269 10.7351 10.3202L10.7017 10.2903L10.6684 10.3203C10.0823 10.846 9.32244 11.1362 8.53515 11.1351H8.53508H6.37924ZM4.21073 10.2995C3.8878 10.0052 3.62856 9.64771 3.44925 9.24897C3.26351 8.83593 3.16778 8.38809 3.16841 7.93521V7.93514V5.76847C3.16841 4.91978 3.50555 4.10585 4.10567 3.50573C4.70579 2.90562 5.51972 2.56847 6.36841 2.56847H21.5351C22.3838 2.56847 23.1977 2.90562 23.7978 3.50573C24.3979 4.10585 24.7351 4.91978 24.7351 5.76847V7.93514C24.7351 8.87597 24.3298 9.72284 23.6823 10.3085L23.6658 10.3234V10.3456V21.9806C23.6658 22.5419 23.4428 23.0803 23.0459 23.4773C22.6489 23.8742 22.1105 24.0972 21.5492 24.0972H13.2725V24.0963L13.2632 24.0981C13.133 24.1227 13.0009 24.1351 12.8684 24.1351H10.7017C10.5693 24.1351 10.4371 24.1227 10.307 24.0981L10.3071 24.0972H10.2977H6.38033C5.81895 24.0972 5.28057 23.8742 4.88362 23.4773C4.48667 23.0803 4.26366 22.5419 4.26366 21.9806V10.3672V10.2465L4.21073 10.2995ZM12.9184 16.6018V16.5518H12.8684H10.7017H10.6517V16.6018V21.9806V22.0306H10.7017H12.8684V21.9816H12.9184V21.9806V21.9306V16.6018ZM16.1684 4.68514V4.63514H16.1184H11.7851H11.7351V4.68514V7.93514C11.7351 8.23572 11.8545 8.52399 12.067 8.73653C12.2796 8.94907 12.5678 9.06847 12.8684 9.06847H15.0351C15.3357 9.06847 15.6239 8.94907 15.8365 8.73653C16.049 8.52399 16.1684 8.23572 16.1684 7.93514V4.68514ZM18.2851 4.63514H18.2351V4.68514V7.93514C18.2351 8.23572 18.3545 8.52399 18.567 8.73653C18.7796 8.94907 19.0678 9.06847 19.3684 9.06847H21.5351C21.8357 9.06847 22.1239 8.94907 22.3365 8.73653C22.549 8.52399 22.6684 8.23572 22.6684 7.93514V5.76847C22.6684 5.4679 22.549 5.17963 22.3365 4.96709C22.1239 4.75454 21.8357 4.63514 21.5351 4.63514H18.2851ZM18.2851 14.4851H19.3684C19.6425 14.4851 19.9053 14.594 20.0991 14.7878C20.2929 14.9816 20.4017 15.2444 20.4017 15.5185V18.7685C20.4017 19.0425 20.2929 19.3054 20.0991 19.4992C19.9053 19.6929 19.6425 19.8018 19.3684 19.8018H18.2851C18.011 19.8018 17.7482 19.6929 17.5544 19.4992C17.3606 19.3054 17.2517 19.0425 17.2517 18.7685V15.5185C17.2517 15.2444 17.3606 14.9816 17.5544 14.7878C17.7482 14.594 18.011 14.4851 18.2851 14.4851Z" fill="#7C7C7C" stroke="white" stroke-width="0.1"/>
</svg>
